<?xml version="1.0" standalone="no"?>
<!DOCTYPE svg PUBLIC "-//W3C//DTD SVG 20010904//EN"
 "http://www.w3.org/TR/2001/REC-SVG-20010904/DTD/svg10.dtd">
<svg version="1.0" xmlns="http://www.w3.org/2000/svg"
 width="500.000000pt" height="500.000000pt" viewBox="0 0 500.000000 500.000000"
 preserveAspectRatio="xMidYMid meet">
<metadata>
Created by potrace 1.11, written by Peter Selinger 2001-2013
</metadata>
<g transform="translate(0.000000,500.000000) scale(0.100000,-0.100000)"
fill="#000000" stroke="none">
<path d="M0 2500 l0 -2500 2500 0 2500 0 0 2500 0 2500 -2500 0 -2500 0 0
-2500z m3733 1425 c106 -18 229 -57 326 -101 87 -40 253 -149 295 -193 l29
-30 -142 -178 c-79 -98 -146 -179 -150 -181 -4 -1 -47 22 -94 52 -94 59 -217
108 -318 127 -86 16 -273 16 -329 0 -121 -34 -198 -128 -188 -231 11 -107 76
-158 340 -264 563 -227 642 -267 766 -388 72 -71 120 -147 156 -248 29 -80 31
-93 31 -235 0 -143 -2 -154 -32 -238 -40 -113 -82 -183 -167 -273 -318 -344
-974 -399 -1497 -128 -103 54 -279 177 -286 200 -2 7 58 85 134 176 76 90 150
178 165 196 l27 32 98 -67 c123 -83 241 -138 363 -170 315 -80 580 -3 598 175
13 136 -55 210 -279 305 -534 226 -596 254 -679 308 -144 95 -244 221 -297
371 -34 97 -43 278 -19 383 72 304 345 532 718 600 101 18 326 18 431 0z
m-1413 -275 l0 -250 -570 0 -570 0 0 -260 0 -260 485 0 485 0 0 -250 0 -250
-485 0 -485 0 0 -295 0 -295 590 0 590 0 0 -250 0 -250 -885 0 -885 0 0 1305
0 1305 865 0 865 0 0 -250z"/>
</g>
</svg>
